<svg width="313" height="126" viewBox="0 0 313 126" fill="none" xmlns="http://www.w3.org/2000/svg">
<path d="M72.7479 3.072L61.0359 48H47.7879L40.6199 18.432L33.1959 48H19.9479L8.55589 3.072H20.2679L26.7319 35.776L34.7319 3.072H46.7639L54.4439 35.776L60.9719 3.072H72.7479ZM111.529 29.568C111.529 30.592 111.465 31.6587 111.337 32.768H86.5691C86.7397 34.9867 87.4437 36.6933 88.6811 37.888C89.9611 39.04 91.5184 39.616 93.3531 39.616C96.0837 39.616 97.9824 38.464 99.0491 36.16H110.697C110.1 38.5067 109.012 40.6187 107.433 42.496C105.897 44.3733 103.956 45.8453 101.609 46.912C99.2624 47.9787 96.6384 48.512 93.7371 48.512C90.2384 48.512 87.1237 47.7653 84.3931 46.272C81.6624 44.7787 79.5291 42.6453 77.9931 39.872C76.4571 37.0987 75.6891 33.856 75.6891 30.144C75.6891 26.432 76.4357 23.1893 77.9291 20.416C79.4651 17.6427 81.5984 15.5093 84.3291 14.016C87.0597 12.5227 90.1957 11.776 93.7371 11.776C97.1931 11.776 100.265 12.5013 102.953 13.952C105.641 15.4027 107.732 17.472 109.225 20.16C110.761 22.848 111.529 25.984 111.529 29.568ZM100.329 26.688C100.329 24.8107 99.6891 23.3173 98.4091 22.208C97.1291 21.0987 95.5291 20.544 93.6091 20.544C91.7744 20.544 90.2171 21.0773 88.9371 22.144C87.6997 23.2107 86.9317 24.7253 86.6331 26.688H100.329ZM114.755 30.08C114.755 26.4107 115.438 23.1893 116.803 20.416C118.211 17.6427 120.11 15.5093 122.499 14.016C124.889 12.5227 127.555 11.776 130.499 11.776C133.017 11.776 135.214 12.288 137.091 13.312C139.011 14.336 140.483 15.68 141.507 17.344V12.288H152.451V48H141.507V42.944C140.441 44.608 138.947 45.952 137.027 46.976C135.15 48 132.953 48.512 130.435 48.512C127.534 48.512 124.889 47.7653 122.499 46.272C120.11 44.736 118.211 42.5813 116.803 39.808C115.438 36.992 114.755 33.7493 114.755 30.08ZM141.507 30.144C141.507 27.4133 140.739 25.2587 139.203 23.68C137.71 22.1013 135.875 21.312 133.699 21.312C131.523 21.312 129.667 22.1013 128.131 23.68C126.638 25.216 125.891 27.3493 125.891 30.08C125.891 32.8107 126.638 34.9867 128.131 36.608C129.667 38.1867 131.523 38.976 133.699 38.976C135.875 38.976 137.71 38.1867 139.203 36.608C140.739 35.0293 141.507 32.8747 141.507 30.144ZM179.901 38.72V48H174.333C170.365 48 167.272 47.04 165.053 45.12C162.835 43.1573 161.725 39.9787 161.725 35.584V21.376H157.373V12.288H161.725V3.584H172.669V12.288H179.837V21.376H172.669V35.712C172.669 36.7787 172.925 37.5467 173.437 38.016C173.949 38.4853 174.803 38.72 175.997 38.72H179.901ZM207.578 11.904C211.674 11.904 214.959 13.2693 217.434 16C219.909 18.688 221.146 22.4 221.146 27.136V48H210.266V28.608C210.266 26.2187 209.647 24.3627 208.41 23.04C207.173 21.7173 205.509 21.056 203.418 21.056C201.327 21.056 199.663 21.7173 198.426 23.04C197.189 24.3627 196.57 26.2187 196.57 28.608V48H185.626V0.639999H196.57V17.088C197.679 15.5093 199.194 14.2507 201.114 13.312C203.034 12.3733 205.189 11.904 207.578 11.904ZM262.044 29.568C262.044 30.592 261.98 31.6587 261.852 32.768H237.084C237.254 34.9867 237.958 36.6933 239.196 37.888C240.476 39.04 242.033 39.616 243.868 39.616C246.598 39.616 248.497 38.464 249.564 36.16H261.212C260.614 38.5067 259.526 40.6187 257.948 42.496C256.412 44.3733 254.47 45.8453 252.124 46.912C249.777 47.9787 247.153 48.512 244.252 48.512C240.753 48.512 237.638 47.7653 234.908 46.272C232.177 44.7787 230.044 42.6453 228.508 39.872C226.972 37.0987 226.204 33.856 226.204 30.144C226.204 26.432 226.95 23.1893 228.444 20.416C229.98 17.6427 232.113 15.5093 234.844 14.016C237.574 12.5227 240.71 11.776 244.252 11.776C247.708 11.776 250.78 12.5013 253.468 13.952C256.156 15.4027 258.246 17.472 259.74 20.16C261.276 22.848 262.044 25.984 262.044 29.568ZM250.844 26.688C250.844 24.8107 250.204 23.3173 248.924 22.208C247.644 21.0987 246.044 20.544 244.124 20.544C242.289 20.544 240.732 21.0773 239.452 22.144C238.214 23.2107 237.446 24.7253 237.148 26.688H250.844ZM278.39 18.24C279.67 16.2773 281.27 14.7413 283.19 13.632C285.11 12.48 287.243 11.904 289.59 11.904V23.488H286.582C283.851 23.488 281.803 24.0853 280.438 25.28C279.073 26.432 278.39 28.48 278.39 31.424V48H267.446V12.288H278.39V18.24Z" fill="white"/>
<path d="M26.5238 80.52V86.472H7.64381V99.592H22.3638V105.544H7.64381V125H0.347806V80.52H26.5238ZM48.21 125.576C44.882 125.576 41.874 124.829 39.186 123.336C36.498 121.8 34.386 119.667 32.85 116.936C31.314 114.163 30.546 110.963 30.546 107.336C30.546 103.752 31.3353 100.573 32.914 97.8C34.4927 95.0267 36.6473 92.8933 39.378 91.4C42.1087 89.9067 45.1593 89.16 48.53 89.16C51.9007 89.16 54.9513 89.9067 57.682 91.4C60.4127 92.8933 62.5673 95.0267 64.146 97.8C65.7247 100.573 66.514 103.752 66.514 107.336C66.514 110.92 65.7033 114.099 64.082 116.872C62.4607 119.645 60.242 121.8 57.426 123.336C54.6527 124.829 51.5807 125.576 48.21 125.576ZM48.21 119.24C50.0873 119.24 51.8367 118.792 53.458 117.896C55.122 117 56.466 115.656 57.49 113.864C58.514 112.072 59.026 109.896 59.026 107.336C59.026 104.776 58.5353 102.621 57.554 100.872C56.5727 99.08 55.2713 97.736 53.65 96.84C52.0287 95.944 50.2793 95.496 48.402 95.496C46.5246 95.496 44.7753 95.944 43.154 96.84C41.5753 97.736 40.3167 99.08 39.378 100.872C38.4393 102.621 37.97 104.776 37.97 107.336C37.97 111.133 38.93 114.077 40.85 116.168C42.8127 118.216 45.266 119.24 48.21 119.24ZM80.6512 94.856C81.7178 93.064 83.1258 91.6773 84.8752 90.696C86.6672 89.672 88.7792 89.16 91.2112 89.16V96.712H89.3552C86.4965 96.712 84.3205 97.4373 82.8272 98.888C81.3765 100.339 80.6512 102.856 80.6512 106.44V125H73.3552V89.736H80.6512V94.856ZM129.866 106.504C129.866 107.827 129.781 109.021 129.61 110.088H102.666C102.88 112.904 103.925 115.165 105.802 116.872C107.68 118.579 109.984 119.432 112.714 119.432C116.64 119.432 119.413 117.789 121.034 114.504H128.906C127.84 117.747 125.898 120.413 123.082 122.504C120.309 124.552 116.853 125.576 112.714 125.576C109.344 125.576 106.314 124.829 103.626 123.336C100.981 121.8 98.8903 119.667 97.3543 116.936C95.861 114.163 95.1143 110.963 95.1143 107.336C95.1143 103.709 95.8397 100.531 97.2903 97.8C98.7837 95.0267 100.853 92.8933 103.498 91.4C106.186 89.9067 109.258 89.16 112.714 89.16C116.042 89.16 119.008 89.8853 121.61 91.336C124.213 92.7867 126.24 94.8347 127.69 97.48C129.141 100.083 129.866 103.091 129.866 106.504ZM122.25 104.2C122.208 101.512 121.248 99.3573 119.37 97.736C117.493 96.1147 115.168 95.304 112.394 95.304C109.877 95.304 107.722 96.1147 105.93 97.736C104.138 99.3147 103.072 101.469 102.73 104.2H122.25ZM134.243 102.664C134.243 98.312 135.246 94.408 137.251 90.952C139.299 87.496 142.051 84.808 145.507 82.888C149.006 80.9253 152.824 79.944 156.963 79.944C161.699 79.944 165.902 81.1173 169.571 83.464C173.283 85.768 175.971 89.0533 177.635 93.32H168.867C167.715 90.9733 166.115 89.224 164.067 88.072C162.019 86.92 159.651 86.344 156.963 86.344C154.019 86.344 151.395 87.0053 149.091 88.328C146.787 89.6507 144.974 91.5493 143.651 94.024C142.371 96.4987 141.731 99.3787 141.731 102.664C141.731 105.949 142.371 108.829 143.651 111.304C144.974 113.779 146.787 115.699 149.091 117.064C151.395 118.387 154.019 119.048 156.963 119.048C159.651 119.048 162.019 118.472 164.067 117.32C166.115 116.168 167.715 114.419 168.867 112.072H177.635C175.971 116.339 173.283 119.624 169.571 121.928C165.902 124.232 161.699 125.384 156.963 125.384C152.782 125.384 148.963 124.424 145.507 122.504C142.051 120.541 139.299 117.832 137.251 114.376C135.246 110.92 134.243 107.016 134.243 102.664ZM183.372 107.208C183.372 103.667 184.097 100.531 185.548 97.8C187.041 95.0693 189.046 92.9573 191.564 91.464C194.124 89.928 196.94 89.16 200.012 89.16C202.785 89.16 205.196 89.7147 207.244 90.824C209.334 91.8907 210.998 93.2347 212.236 94.856V89.736H219.596V125H212.236V119.752C210.998 121.416 209.313 122.803 207.18 123.912C205.046 125.021 202.614 125.576 199.884 125.576C196.854 125.576 194.081 124.808 191.564 123.272C189.046 121.693 187.041 119.517 185.548 116.744C184.097 113.928 183.372 110.749 183.372 107.208ZM212.236 107.336C212.236 104.904 211.724 102.792 210.7 101C209.718 99.208 208.417 97.8427 206.796 96.904C205.174 95.9653 203.425 95.496 201.548 95.496C199.67 95.496 197.921 95.9653 196.3 96.904C194.678 97.8 193.356 99.144 192.332 100.936C191.35 102.685 190.86 104.776 190.86 107.208C190.86 109.64 191.35 111.773 192.332 113.608C193.356 115.443 194.678 116.851 196.3 117.832C197.964 118.771 199.713 119.24 201.548 119.24C203.425 119.24 205.174 118.771 206.796 117.832C208.417 116.893 209.718 115.528 210.7 113.736C211.724 111.901 212.236 109.768 212.236 107.336ZM241.607 125.576C238.834 125.576 236.338 125.085 234.119 124.104C231.943 123.08 230.215 121.715 228.935 120.008C227.655 118.259 226.973 116.317 226.887 114.184H234.439C234.567 115.677 235.271 116.936 236.551 117.96C237.874 118.941 239.517 119.432 241.479 119.432C243.527 119.432 245.106 119.048 246.215 118.28C247.367 117.469 247.943 116.445 247.943 115.208C247.943 113.885 247.303 112.904 246.023 112.264C244.786 111.624 242.802 110.92 240.071 110.152C237.426 109.427 235.271 108.723 233.607 108.04C231.943 107.357 230.493 106.312 229.255 104.904C228.061 103.496 227.463 101.64 227.463 99.336C227.463 97.4587 228.018 95.752 229.127 94.216C230.237 92.6373 231.815 91.4 233.863 90.504C235.954 89.608 238.343 89.16 241.031 89.16C245.042 89.16 248.263 90.184 250.695 92.232C253.17 94.2373 254.493 96.9893 254.663 100.488H247.367C247.239 98.9093 246.599 97.6507 245.447 96.712C244.295 95.7733 242.738 95.304 240.775 95.304C238.855 95.304 237.383 95.6667 236.359 96.392C235.335 97.1173 234.823 98.0773 234.823 99.272C234.823 100.211 235.165 101 235.847 101.64C236.53 102.28 237.362 102.792 238.343 103.176C239.325 103.517 240.775 103.965 242.695 104.52C245.255 105.203 247.346 105.907 248.967 106.632C250.631 107.315 252.061 108.339 253.255 109.704C254.45 111.069 255.069 112.883 255.111 115.144C255.111 117.149 254.557 118.941 253.447 120.52C252.338 122.099 250.759 123.336 248.711 124.232C246.706 125.128 244.338 125.576 241.607 125.576ZM271.136 95.688V115.208C271.136 116.531 271.434 117.491 272.032 118.088C272.672 118.643 273.738 118.92 275.232 118.92H279.712V125H273.952C270.666 125 268.149 124.232 266.4 122.696C264.65 121.16 263.776 118.664 263.776 115.208V95.688H259.616V89.736H263.776V80.968H271.136V89.736H279.712V95.688H271.136ZM298.865 125.576C296.091 125.576 293.595 125.085 291.377 124.104C289.201 123.08 287.473 121.715 286.193 120.008C284.913 118.259 284.23 116.317 284.145 114.184H291.697C291.825 115.677 292.529 116.936 293.809 117.96C295.131 118.941 296.774 119.432 298.737 119.432C300.785 119.432 302.363 119.048 303.473 118.28C304.625 117.469 305.201 116.445 305.201 115.208C305.201 113.885 304.561 112.904 303.281 112.264C302.043 111.624 300.059 110.92 297.329 110.152C294.683 109.427 292.529 108.723 290.865 108.04C289.201 107.357 287.75 106.312 286.513 104.904C285.318 103.496 284.721 101.64 284.721 99.336C284.721 97.4587 285.275 95.752 286.385 94.216C287.494 92.6373 289.073 91.4 291.121 90.504C293.211 89.608 295.601 89.16 298.289 89.16C302.299 89.16 305.521 90.184 307.953 92.232C310.427 94.2373 311.75 96.9893 311.921 100.488H304.625C304.497 98.9093 303.857 97.6507 302.705 96.712C301.553 95.7733 299.995 95.304 298.033 95.304C296.113 95.304 294.641 95.6667 293.617 96.392C292.593 97.1173 292.081 98.0773 292.081 99.272C292.081 100.211 292.422 101 293.105 101.64C293.787 102.28 294.619 102.792 295.601 103.176C296.582 103.517 298.033 103.965 299.953 104.52C302.513 105.203 304.603 105.907 306.225 106.632C307.889 107.315 309.318 108.339 310.513 109.704C311.707 111.069 312.326 112.883 312.369 115.144C312.369 117.149 311.814 118.941 310.705 120.52C309.595 122.099 308.017 123.336 305.969 124.232C303.963 125.128 301.595 125.576 298.865 125.576Z" fill="#DDB130"/>
</svg>
